<svg viewBox="0 0 32 32" xmlns="http://www.w3.org/2000/svg" aria-hidden="true"
  style="display:block;height:32px;width:32px">
  <defs>
    <radialGradient cx="19.25%" cy="99.447%" fx="19.25%" fy="99.447%" r="108.96%" gradientTransform="scale(1 .99991)"
      id="a">
      <stop stop-color="#09F" offset="0%" />
      <stop stop-color="#A033FF" offset="60.98%" />
      <stop stop-color="#FF5280" offset="93.48%" />
      <stop stop-color="#FF7061" offset="100%" />
    </radialGradient>
  </defs>
  <path fill="#FFF" d="M32 0v32H0V0z" />
  <path
    d="M16 4C9.241 4 4 8.953 4 15.64c0 3.498 1.434 6.522 3.768 8.61.195.174.315.42.321.684l.066 2.136a.96.96 0 0 0 1.347.849l2.382-1.05a.964.964 0 0 1 .642-.048c1.095.3 2.259.462 3.474.462 6.759 0 12-4.953 12-11.64S22.759 4 16 4z"
    fill="url(#a)" />
  <path
    d="m8.794 19.045 3.525-5.592a1.8 1.8 0 0 1 2.604-.48l2.805 2.103a.72.72 0 0 0 .867-.003l3.786-2.874c.504-.384 1.164.222.828.759l-3.528 5.589a1.8 1.8 0 0 1-2.604.48l-2.805-2.103a.72.72 0 0 0-.867.003l-3.786 2.874c-.504.384-1.164-.219-.825-.756z"
    fill="#FFF" />
</svg>
