<svg viewBox="0 0 32 32" xmlns="http://www.w3.org/2000/svg" aria-hidden="true"
  style="display:block;height:32px;width:32px">
  <defs>
    <linearGradient x1="50.794%" y1="93.362%" x2="50.794%" y2="12.41%" id="a">
      <stop stop-color="#0CBD2A" offset="0%" />
      <stop stop-color="#5BF675" offset="100%" />
    </linearGradient>
  </defs>
  <path d="M2 0h28a2 2 0 0 1 2 2v28a2 2 0 0 1-2 2H2a2 2 0 0 1-2-2V2a2 2 0 0 1 2-2z" fill="url(#a)" />
  <path
    d="M15.796 5.469c-6.404 0-11.595 4.324-11.595 9.658.005 3.39 2.143 6.528 5.633 8.27-.457 1.023-1.142 1.983-2.028 2.838 1.717-.3 3.329-.934 4.71-1.85a13.7 13.7 0 0 0 3.28.4c6.404 0 11.596-4.324 11.596-9.658S22.2 5.47 15.796 5.47z"
    fill="#FFF" />
</svg>
