<svg viewBox="0 0 32 32" xmlns="http://www.w3.org/2000/svg" aria-hidden="true" style="display:block;height:32px;width:32px"><path fill="#1DA1F2" d="M0 0h32v32H0z"/><path d="M18.664 7.985a4.5 4.5 0 0 0-2.289 4.89c-3.5-.188-6.875-1.813-9.063-4.625a4.25 4.25 0 0 0 1.375 5.875c-.687 0-1.374-.125-2-.438.063 2.063 1.5 3.876 3.5 4.313-.624.188-1.312.188-2 .063.626 1.812 2.313 3.062 4.188 3.125-1.813 1.5-4.25 2.187-6.563 1.812a12.438 12.438 0 0 0 19.313-11.188c.875-.624 1.625-1.374 2.188-2.312-.75.375-1.625.625-2.5.75.937-.563 1.625-1.438 2-2.5-.875.5-1.813.875-2.813 1.063a4.5 4.5 0 0 0-5.336-.828z" fill="#FFF"/></svg>