<svg viewBox="0 0 32 32" xmlns="http://www.w3.org/2000/svg" aria-hidden="true" style="display:block;height:32px;width:32px"><path fill="#1AAD19" d="M32 32H0V0h32z"/><path d="M21.125 12.562c4.314 0 7.813 2.908 7.813 6.5 0 1.95-1.053 3.712-2.688 4.875a.568.568 0 0 0-.203.31l-.008.079v.058l.006.083.018.096.08.338.086.336.107.403.082.29c.014.043.02.088.02.133a.252.252 0 0 1-.369.222L26 26.25l-1.687-1c-.095-.05-.202-.109-.321-.115l-.092.006-.126.025-.437.116a9.795 9.795 0 0 1-2.212.281c-4.315-.013-7.813-2.92-7.813-6.5 0-3.593 3.498-6.5 7.813-6.501zm-8.75-7.187c4.67 0 8.544 2.847 9.25 6.562l-.253-.002-.514.006c-4.605.11-8.288 3.246-8.296 7.122.01.637.116 1.27.313 1.875-.16.017-.332.022-.5 0a11.46 11.46 0 0 1-3.063-.375 1.892 1.892 0 0 0-.373-.058.796.796 0 0 0-.288.072l-.088.048L6.5 21.812a.402.402 0 0 1-.187.063.308.308 0 0 1-.313-.313l.004-.058.015-.056.043-.135.396-1.657a.823.823 0 0 0 .017-.156.492.492 0 0 0-.225-.438C4.262 17.628 3 15.516 3 13.188c0-4.324 4.195-7.813 9.375-7.813zm6.095 10.563a.987.987 0 0 0-.97.97c0 .582.448 1.03.97 1.03.583 0 1.03-.448 1.03-1.03 0-.523-.447-.97-1.03-.97zm5.187 0a.987.987 0 0 0-.97.97c0 .582.448 1.03.97 1.03.583 0 1.03-.448 1.03-1.03 0-.523-.447-.97-1.03-.97zm-14.47-6.5a1.25 1.25 0 1 0 0 2.5 1.25 1.25 0 0 0 0-2.5zm6.25 0a1.25 1.25 0 1 0 0 2.5 1.25 1.25 0 0 0 0-2.5z" fill="#FFF"/></svg>