<svg viewBox="0 0 32 32" xmlns="http://www.w3.org/2000/svg" aria-hidden="true" style="display:block;height:32px;width:32px"><path d="M32 0v32H0V0z" fill="#25d366"/><path d="m4 28 1.695-6.163A11.824 11.824 0 0 1 4.1 15.891C4.103 9.335 9.464 4 16.05 4a11.903 11.903 0 0 1 8.453 3.488A11.794 11.794 0 0 1 28 15.902c-.003 6.557-5.363 11.892-11.95 11.892-2 0-3.97-.5-5.715-1.448zm6.628-3.807c1.684.995 3.292 1.591 5.418 1.592 5.474 0 9.933-4.434 9.936-9.885.002-5.462-4.436-9.89-9.928-9.892-5.478 0-9.934 4.434-9.936 9.884 0 2.225.654 3.891 1.754 5.634L6.87 25.174l3.76-.98h-.002zm11.364-5.518c-.074-.123-.272-.196-.57-.344-.296-.148-1.754-.863-2.027-.96-.271-.1-.469-.149-.667.147-.198.295-.767.96-.94 1.157s-.346.222-.643.074c-.296-.148-1.253-.46-2.386-1.466-.881-.783-1.477-1.75-1.65-2.045s-.018-.455.13-.602c.134-.133.296-.345.445-.518.15-.17.2-.294.3-.492.098-.197.05-.37-.025-.518-.075-.147-.668-1.6-.915-2.19-.241-.577-.486-.499-.668-.508l-.569-.01a1.09 1.09 0 0 0-.79.37c-.272.296-1.039 1.01-1.039 2.463s1.064 2.857 1.211 3.054c.15.197 2.092 3.18 5.068 4.458.708.304 1.26.486 1.69.622.712.224 1.359.193 1.87.117.57-.084 1.755-.714 2.002-1.404.248-.69.248-1.28.173-1.405z" fill="#FFF"/></svg>